<?xml version="1.0" encoding="UTF-8"?>
<svg id="Layer_1" data-name="Layer 1" xmlns="http://www.w3.org/2000/svg" viewBox="0 0 867.56 418.67">
  <defs>
    <style>
      .cls-1 {
        fill: none;
        stroke: #fff;
        stroke-linecap: round;
        stroke-linejoin: round;
        stroke-width: 16px;
      }

      .cls-2 {
        fill: #ffe29e;
      }

      .cls-2, .cls-3 {
        stroke-width: 0px;
      }

      .cls-3 {
        fill: #fff;
      }
    </style>
  </defs>
  <path class="cls-1" d="M553.42,113.24v-54.87h0c-.89-.62-1.78-1.24-2.68-1.85C468.24.41,357.89,12.69,288.11,84.45h.08s-.11,108.83-.11,108.83l.11-108.83C218.42,12.69,108.06.41,25.56,56.53c-.9.61-1.79,1.23-2.68,1.85h0v258.66h0s48.05-6.76,97.19-3.05c86.85,6.55,138.64,15.96,177.6,40.89"/>
  <g>
    <path class="cls-3" d="M72.56,247.29v-10.1l6.79-1.26c2-.42,3.48-1.18,4.42-2.29s2-3.18,3.16-6.23l32.54-90.56h22.12l32.54,91.03c1.05,2.74,1.97,4.63,2.76,5.68.79,1.05,2.24,1.84,4.34,2.37l6,1.26v10.1h-47.57v-10.18l8.11-1.11c2.01-.32,3.26-1.09,3.74-2.31.48-1.22.29-3.1-.56-5.65l-5.25-15.59h-39.74l-5.09,14.95c-.74,2.12-1.03,3.98-.87,5.57s1.72,2.65,4.69,3.18l7.79,1.11v10.02h-39.93ZM110.39,200.57h31.67l-15.21-46.72h-.47l-15.99,46.72Z"/>
    <path class="cls-3" d="M198.24,248.99l-2.37-27.63,11.21-.79c1.58,3.79,3.42,6.95,5.53,9.47,2.1,2.53,4.55,4.42,7.34,5.68,2.79,1.26,5.82,1.89,9.08,1.89,4.32,0,7.63-1,9.95-3,2.31-2,3.47-4.74,3.47-8.21,0-2.1-.58-3.84-1.74-5.21-1.16-1.37-3.05-2.61-5.68-3.71-2.63-1.11-6.21-2.18-10.74-3.24-4-1.05-7.69-2.26-11.05-3.63-3.37-1.37-6.26-3-8.68-4.89-2.42-1.89-4.26-4.18-5.53-6.87-1.26-2.68-1.89-5.97-1.89-9.87,0-5.26,1.21-9.74,3.63-13.42,2.42-3.68,5.84-6.53,10.26-8.53,4.42-2,9.58-3,15.47-3,3.68,0,7.21.5,10.58,1.5,3.37,1,6.05,2.24,8.05,3.71l1.26-5.21h9.16l1.89,26.37-11.21-.79c-1.48-4.95-3.92-8.76-7.34-11.45-3.42-2.68-7.24-4.03-11.45-4.03s-7.26.84-9.47,2.53c-2.21,1.69-3.32,4.11-3.32,7.26,0,2,.55,3.69,1.66,5.05,1.11,1.37,2.95,2.61,5.53,3.71,2.58,1.11,6.08,2.29,10.5,3.55,4.52,1.16,8.53,2.45,12,3.87s6.37,3.08,8.68,4.97c2.31,1.89,4.05,4.18,5.21,6.87,1.16,2.68,1.74,5.87,1.74,9.55,0,5.58-1.26,10.42-3.79,14.53-2.53,4.11-6.05,7.29-10.58,9.55-4.53,2.26-9.84,3.39-15.95,3.39-4.42,0-8.42-.5-12-1.5-3.58-1-6.53-2.34-8.84-4.03l-1.74,5.53h-8.84Z"/>
    <path class="cls-3" d="M277.34,127.51l.48-42.31h20.33l-.48,92.61.31.79c2.06-3.15,4.38-5.78,6.95-7.88,2.57-2.1,5.41-3.65,8.5-4.65,3.09-1,6.43-1.5,10.04-1.5,6.38,0,11.84,1.55,16.37,4.65,4.53,3.1,8.03,7.57,10.5,13.4,2.47,5.83,3.71,12.96,3.71,21.36,0,9.46-1.44,17.58-4.32,24.36-2.88,6.78-7.08,11.98-12.59,15.61-5.51,3.63-12.28,5.44-20.31,5.44-4.74,0-9.04-.63-12.9-1.89s-7.39-3.1-10.58-5.52l-7.26,6.78-8.8-.79v-99.22M314.23,236.15c4.1,0,7.54-1.13,10.33-3.39,2.78-2.26,4.89-5.65,6.31-10.17,1.42-4.52,2.13-10.09,2.13-16.71s-.63-11.51-1.89-15.61c-1.26-4.1-3.15-7.15-5.68-9.14-2.52-2-5.68-3-9.46-3s-7.07.84-9.85,2.52c-2.79,1.68-4.89,4.05-6.31,7.1-1.42,3.05-2.13,6.73-2.13,11.04v31.22c2,1.89,4.47,3.39,7.41,4.49,2.94,1.1,5.99,1.66,9.14,1.66Z"/>
    <path class="cls-3" d="M407.82,248.95c-8.41,0-15.58-1.68-21.52-5.05-5.94-3.36-10.48-8.12-13.64-14.27s-4.73-13.32-4.73-21.52c0-9.14,1.76-17,5.28-23.57,3.52-6.57,8.38-11.61,14.58-15.14,6.2-3.52,13.4-5.28,21.6-5.28,6.41,0,12.03,1.18,16.87,3.55,4.83,2.37,8.57,5.73,11.19,10.09,2.63,4.36,3.94,9.59,3.94,15.69,0,2.42-.16,4.97-.47,7.65-.32,2.68-.79,5.34-1.42,7.96h-49.51c.32,5.15,1.42,9.57,3.31,13.24,1.89,3.68,4.49,6.44,7.8,8.28,3.31,1.84,7.23,2.76,11.75,2.76s8.67-.79,12.46-2.37c3.78-1.58,7.25-3.73,10.41-6.46l6.94,7.57c-3.89,5.05-8.88,9.12-14.98,12.22-6.1,3.1-12.72,4.65-19.87,4.65ZM390.01,198.02h30.59c.21-1.16.34-2.34.39-3.55.05-1.21.08-2.5.08-3.86,0-5.05-1.1-8.93-3.31-11.67-2.21-2.73-5.52-4.1-9.93-4.1-3.57,0-6.62.95-9.14,2.84-2.52,1.89-4.52,4.55-5.99,7.96-1.47,3.42-2.37,7.54-2.68,12.38Z"/>
    <path class="cls-3" d="M455.55,248.99l-2.37-27.63,11.21-.79c1.58,3.79,3.42,6.95,5.53,9.47,2.1,2.53,4.55,4.42,7.34,5.68,2.79,1.26,5.82,1.89,9.08,1.89,4.32,0,7.63-1,9.95-3,2.31-2,3.47-4.74,3.47-8.21,0-2.1-.58-3.84-1.74-5.21-1.16-1.37-3.05-2.61-5.68-3.71-2.63-1.11-6.21-2.18-10.74-3.24-4-1.05-7.69-2.26-11.05-3.63-3.37-1.37-6.26-3-8.68-4.89-2.42-1.89-4.26-4.18-5.53-6.87-1.26-2.68-1.89-5.97-1.89-9.87,0-5.26,1.21-9.74,3.63-13.42,2.42-3.68,5.84-6.53,10.26-8.53,4.42-2,9.58-3,15.47-3,3.68,0,7.21.5,10.58,1.5,3.37,1,6.05,2.24,8.05,3.71l1.26-5.21h9.16l1.89,26.37-11.21-.79c-1.48-4.95-3.92-8.76-7.34-11.45-3.42-2.68-7.24-4.03-11.45-4.03s-7.26.84-9.47,2.53c-2.21,1.69-3.32,4.11-3.32,7.26,0,2,.55,3.69,1.66,5.05,1.11,1.37,2.95,2.61,5.53,3.71,2.58,1.11,6.08,2.29,10.5,3.55,4.52,1.16,8.53,2.45,12,3.87s6.37,3.08,8.68,4.97c2.31,1.89,4.05,4.18,5.21,6.87,1.16,2.68,1.74,5.87,1.74,9.55,0,5.58-1.26,10.42-3.79,14.53s-6.05,7.29-10.58,9.55c-4.53,2.26-9.84,3.39-15.95,3.39-4.42,0-8.42-.5-12-1.5-3.58-1-6.53-2.34-8.84-4.03l-1.74,5.53h-8.84Z"/>
    <path class="cls-3" d="M560.1,249.49c-5.05,0-9.27-.87-12.67-2.6-3.4-1.73-5.95-4.41-7.65-8.04-1.7-3.63-2.55-8.12-2.55-13.48v-46.04h-11.89v-10.41c4.35-.63,7.83-1.94,10.43-3.94,2.6-2,4.59-4.99,5.97-8.99,1.38-3.99,2.33-9.09,2.87-15.29l11.31-1.42,2.55,1.1v26.2h22.94v12.74h-23.79v43.04c0,4.1.75,7.17,2.24,9.22,1.49,2.05,4.04,3.07,7.65,3.07,2.37,0,4.66-.37,6.87-1.1,2.21-.73,4.45-1.84,6.72-3.31l4.63,8.04c-3.3,3.37-7.1,6.07-11.43,8.12s-9.06,3.07-14.21,3.07Z"/>
    <path class="cls-3" d="M633.29,249.08c-8.51,0-15.82-1.63-21.92-4.89-6.1-3.26-10.78-7.91-14.03-13.95-3.26-6.04-4.89-13.37-4.89-21.99,0-9.46,1.79-17.47,5.36-24.04,3.57-6.57,8.62-11.53,15.14-14.9,6.52-3.36,14.19-5.05,23.02-5.05,7.99,0,14.95,1.55,20.89,4.65,5.94,3.1,10.56,7.65,13.87,13.64,3.31,5.99,4.97,13.4,4.97,22.23s-1.71,17.06-5.12,23.73c-3.42,6.68-8.28,11.77-14.58,15.29-6.31,3.52-13.87,5.28-22.7,5.28ZM635.5,236.78c4.1,0,7.46-1.08,10.09-3.23,2.63-2.15,4.6-5.36,5.91-9.62,1.31-4.26,1.97-9.48,1.97-15.69,0-5.46-.47-10.19-1.42-14.19-.95-3.99-2.29-7.3-4.02-9.93-1.73-2.63-3.84-4.6-6.31-5.91-2.47-1.31-5.23-1.97-8.28-1.97-4,0-7.36.97-10.09,2.92-2.73,1.95-4.86,4.91-6.39,8.91-1.52,4-2.29,9.09-2.29,15.29,0,7.25.81,13.35,2.44,18.29,1.63,4.94,3.97,8.7,7.02,11.27,3.05,2.58,6.83,3.86,11.35,3.86Z"/>
    <path class="cls-3" d="M689.85,248.99l-2.37-27.63,11.21-.79c1.58,3.79,3.42,6.95,5.53,9.47,2.1,2.53,4.55,4.42,7.34,5.68,2.79,1.26,5.82,1.89,9.08,1.89,4.32,0,7.63-1,9.95-3,2.31-2,3.47-4.74,3.47-8.21,0-2.1-.58-3.84-1.74-5.21-1.16-1.37-3.05-2.61-5.68-3.71-2.63-1.11-6.21-2.18-10.74-3.24-4-1.05-7.69-2.26-11.05-3.63-3.37-1.37-6.26-3-8.68-4.89-2.42-1.89-4.26-4.18-5.53-6.87s-1.89-5.97-1.89-9.87c0-5.26,1.21-9.74,3.63-13.42,2.42-3.68,5.84-6.53,10.26-8.53,4.42-2,9.58-3,15.47-3,3.68,0,7.21.5,10.58,1.5,3.37,1,6.05,2.24,8.05,3.71l1.26-5.21h9.16l1.89,26.37-11.21-.79c-1.48-4.95-3.92-8.76-7.34-11.45-3.42-2.68-7.24-4.03-11.45-4.03s-7.26.84-9.47,2.53c-2.21,1.69-3.32,4.11-3.32,7.26,0,2,.55,3.69,1.66,5.05,1.11,1.37,2.95,2.61,5.53,3.71,2.58,1.11,6.08,2.29,10.5,3.55,4.52,1.16,8.53,2.45,12,3.87s6.37,3.08,8.68,4.97c2.31,1.89,4.05,4.18,5.21,6.87,1.16,2.68,1.74,5.87,1.74,9.55,0,5.58-1.26,10.42-3.79,14.53s-6.05,7.29-10.58,9.55c-4.53,2.26-9.84,3.39-15.95,3.39-4.42,0-8.42-.5-12-1.5-3.58-1-6.53-2.34-8.84-4.03l-1.74,5.53h-8.84Z"/>
  </g>
  <rect class="cls-2" x="395.62" y="380.88" width="441.45" height="16.43" rx="8.05" ry="8.05"/>
  <g>
    <path class="cls-3" d="M368.45,385.96c-5.37,0-10.51-.89-15.43-2.66-4.92-1.77-8.99-4.13-12.23-7.07l-2.28,8.51h-8.97l-2.74-33.13,10.64-1.37c1.42,3.75,3.06,7.04,4.94,9.88,1.87,2.84,4.05,5.24,6.53,7.22,2.48,1.98,5.17,3.47,8.05,4.48,2.89,1.01,6,1.52,9.35,1.52,3.85,0,7.07-.56,9.65-1.67,2.58-1.11,4.53-2.76,5.85-4.94,1.32-2.18,1.98-4.79,1.98-7.83,0-3.24-.74-6.03-2.2-8.36-1.47-2.33-3.88-4.38-7.22-6.15-3.34-1.77-7.8-3.52-13.37-5.24-4.97-1.52-9.4-3.22-13.3-5.09-3.9-1.87-7.17-4.05-9.8-6.53-2.64-2.48-4.64-5.44-6-8.89-1.37-3.44-2.05-7.45-2.05-12.01,0-3.14.43-6.2,1.29-9.19.86-2.99,2.2-5.8,4.03-8.43,1.82-2.63,4.13-4.99,6.91-7.07,2.79-2.08,6.05-3.7,9.8-4.86,3.75-1.16,8-1.75,12.77-1.75s8.91.68,12.77,2.05c3.85,1.37,7.29,3.27,10.33,5.7l1.98-7.75h8.66l3.34,31.91-10.64,1.82c-1.62-5.37-3.72-9.67-6.31-12.92-2.58-3.24-5.47-5.57-8.66-6.99-3.19-1.42-6.66-2.13-10.41-2.13-4.66,0-8.49,1.24-11.47,3.72-2.99,2.48-4.48,5.9-4.48,10.26,0,3.04.76,5.65,2.28,7.83,1.52,2.18,3.93,4.1,7.22,5.77,3.29,1.67,7.47,3.37,12.54,5.09,5.37,1.62,10.11,3.42,14.21,5.4,4.1,1.98,7.52,4.23,10.26,6.76,2.74,2.53,4.79,5.47,6.15,8.81s2.05,7.29,2.05,11.85c0,5.17-.96,9.8-2.89,13.91-1.93,4.1-4.54,7.62-7.83,10.56-3.29,2.94-7.12,5.17-11.47,6.69-4.36,1.52-8.97,2.28-13.83,2.28Z"/>
    <path class="cls-3" d="M448.4,386.04c-4.85,0-8.91-.83-12.17-2.5-3.27-1.67-5.72-4.24-7.35-7.73-1.63-3.49-2.45-7.81-2.45-12.96v-44.25h-11.43v-10c4.18-.61,7.53-1.87,10.03-3.79,2.5-1.92,4.41-4.8,5.74-8.64,1.33-3.84,2.24-8.74,2.76-14.7l10.87-1.36,2.45,1.06v25.19h22.05v12.25h-22.86v41.37c0,3.94.72,6.9,2.15,8.87,1.43,1.97,3.88,2.96,7.35,2.96,2.28,0,4.48-.35,6.61-1.06,2.13-.71,4.28-1.77,6.46-3.18l4.45,7.73c-3.17,3.23-6.83,5.83-10.99,7.81s-8.71,2.96-13.66,2.96Z"/>
    <path class="cls-3" d="M518.78,386.08c-8.18,0-15.21-1.57-21.07-4.7-5.86-3.13-10.36-7.6-13.49-13.41-3.13-5.81-4.7-12.86-4.7-21.14,0-9.09,1.72-16.8,5.15-23.11,3.43-6.31,8.28-11.09,14.55-14.32,6.26-3.23,13.64-4.85,22.13-4.85,7.68,0,14.37,1.49,20.08,4.47,5.71,2.98,10.15,7.35,13.34,13.11s4.77,12.88,4.77,21.37-1.64,16.39-4.93,22.81c-3.28,6.42-7.96,11.32-14.02,14.7-6.06,3.38-13.34,5.08-21.82,5.08ZM520.9,374.26c3.94,0,7.17-1.03,9.7-3.11,2.52-2.07,4.42-5.15,5.68-9.24,1.26-4.09,1.89-9.12,1.89-15.08,0-5.25-.45-9.8-1.36-13.64-.91-3.84-2.2-7.02-3.86-9.55-1.67-2.52-3.69-4.42-6.06-5.68-2.38-1.26-5.03-1.89-7.96-1.89-3.84,0-7.07.94-9.7,2.8-2.63,1.87-4.67,4.72-6.14,8.56-1.47,3.84-2.2,8.74-2.2,14.7,0,6.97.78,12.83,2.35,17.58,1.57,4.75,3.81,8.36,6.74,10.84,2.93,2.48,6.57,3.71,10.91,3.71Z"/>
    <path class="cls-3" d="M571.78,383.93v-9.45l6.77-1.22c1.64-.3,2.69-.96,3.15-1.98.46-1.01.69-2.84.69-5.49v-38.55c0-3.45-.26-5.79-.77-7.01-.51-1.22-1.95-2.03-4.31-2.44l-6.77-.91,1.08-9.9,25.38-1.83,2.15,1.22,1.54,13.87h-.19c2.56-5.08,5.81-9.04,9.75-11.89,3.94-2.84,8.27-4.27,13-4.27,5.12,0,9.16,1.42,12.12,4.27,2.96,2.85,4.43,6.7,4.43,11.58,0,3.05-.44,5.61-1.33,7.69-.89,2.08-2.19,3.66-3.92,4.72-1.72,1.07-3.87,1.6-6.43,1.6-3.25,0-5.71-.69-7.39-2.06-1.68-1.37-2.51-3.17-2.51-5.41,0-.81.07-1.6.22-2.36s.42-1.68.81-2.74c.39-1.07.89-2.31,1.48-3.73-2.07-.91-4.21-1.04-6.43-.38-2.22.66-4.26,1.98-6.13,3.96-1.87,1.98-3.38,4.42-4.51,7.31-1.13,2.9-1.7,6.02-1.7,9.37v28.19c0,2.54.24,4.27.74,5.18.49.91,1.57,1.47,3.25,1.68l11.53,1.68v9.29h-45.73Z"/>
    <path class="cls-3" d="M647.72,383.93v-9.55l7.75-1.21c1.96-.3,3.2-.96,3.72-1.97.52-1.01.78-2.88.78-5.61v-37.41c0-3.68-.31-6.14-.92-7.37s-2.1-2-4.45-2.3l-6.6-1.07,1.07-10.13,29.16-1.38,2.15.92v59.2c0,2.02.22,3.61.65,4.77.43,1.16,1.66,1.95,3.69,2.35l7.09,1.36v9.4h-44.09ZM667.61,291.51c-3.84,0-6.95-1.06-9.32-3.18-2.38-2.12-3.56-4.95-3.56-8.49s1.16-6.37,3.49-8.49c2.32-2.12,5.46-3.18,9.4-3.18,4.14,0,7.35,1.04,9.62,3.11,2.27,2.07,3.41,4.93,3.41,8.56s-1.19,6.37-3.56,8.49c-2.38,2.12-5.53,3.18-9.47,3.18Z"/>
    <path class="cls-3" d="M739.44,386.34c-8.08,0-14.98-1.62-20.69-4.85-5.71-3.23-10.08-7.81-13.11-13.72s-4.55-12.81-4.55-20.69c0-8.79,1.69-16.34,5.08-22.66,3.38-6.31,8.06-11.16,14.02-14.55,5.96-3.38,12.88-5.08,20.76-5.08,6.16,0,11.57,1.14,16.22,3.41,4.65,2.27,8.23,5.51,10.76,9.7,2.52,4.19,3.79,9.22,3.79,15.08,0,2.33-.15,4.77-.45,7.35s-.76,5.13-1.36,7.65h-47.59c.3,4.95,1.36,9.2,3.18,12.73,1.82,3.54,4.32,6.19,7.5,7.96,3.18,1.77,6.95,2.65,11.29,2.65s8.34-.76,11.97-2.27c3.64-1.52,6.97-3.59,10-6.21l6.67,7.27c-3.74,4.85-8.54,8.77-14.4,11.75-5.86,2.98-12.23,4.47-19.1,4.47ZM722.32,337.38h29.4c.2-1.11.33-2.25.38-3.41.05-1.16.08-2.4.08-3.71,0-4.85-1.06-8.59-3.18-11.21-2.12-2.63-5.3-3.94-9.55-3.94-3.44,0-6.37.91-8.79,2.73s-4.35,4.37-5.76,7.65c-1.42,3.28-2.27,7.25-2.58,11.9Z"/>
    <path class="cls-3" d="M785.32,386.38l-2.28-26.56,10.78-.76c1.52,3.64,3.29,6.68,5.31,9.11,2.02,2.43,4.38,4.25,7.06,5.46,2.68,1.21,5.59,1.82,8.73,1.82,4.15,0,7.34-.96,9.56-2.88,2.22-1.92,3.34-4.55,3.34-7.89,0-2.02-.56-3.69-1.67-5.01-1.11-1.31-2.94-2.5-5.46-3.57-2.53-1.06-5.97-2.1-10.32-3.11-3.85-1.01-7.39-2.17-10.62-3.49-3.24-1.31-6.02-2.88-8.35-4.71-2.33-1.82-4.1-4.02-5.31-6.6-1.21-2.58-1.82-5.74-1.82-9.49,0-5.06,1.16-9.36,3.49-12.9,2.33-3.54,5.62-6.27,9.87-8.2,4.25-1.92,9.21-2.88,14.87-2.88,3.54,0,6.93.48,10.17,1.44,3.24.96,5.82,2.15,7.74,3.57l1.21-5.01h8.8l1.82,25.35-10.78-.76c-1.42-4.75-3.77-8.42-7.06-11-3.29-2.58-6.96-3.87-11-3.87s-6.98.81-9.11,2.43c-2.12,1.62-3.19,3.95-3.19,6.98,0,1.92.53,3.54,1.59,4.86,1.06,1.32,2.83,2.5,5.31,3.57,2.48,1.06,5.84,2.2,10.09,3.42,4.35,1.11,8.2,2.35,11.54,3.72,3.34,1.37,6.12,2.96,8.35,4.78,2.22,1.82,3.89,4.02,5.01,6.6,1.11,2.58,1.67,5.64,1.67,9.18,0,5.36-1.21,10.02-3.64,13.96-2.43,3.95-5.82,7.01-10.17,9.18-4.35,2.17-9.46,3.26-15.33,3.26-4.25,0-8.1-.48-11.54-1.44-3.44-.96-6.28-2.25-8.5-3.87l-1.67,5.31h-8.5Z"/>
  </g>
</svg>