<svg width="234" height="256" viewBox="0 0 234 256" fill="none" xmlns="http://www.w3.org/2000/svg">
<path d="M86.54 63.6895H208.071" stroke="#2C4973" stroke-width="8" stroke-linecap="round"/>
<path d="M69.7998 150.119L78.8305 165.99C82.2091 171.927 90.4146 172.804 94.9718 167.715L127.719 131.143" stroke="#2C4973" stroke-width="8" stroke-linecap="round"/>
<path d="M85.2012 26.9443H171.578" stroke="#2C4973" stroke-width="8" stroke-linecap="round"/>
<path d="M154.504 99.5732L208.741 99.5732" stroke="#2C4973" stroke-width="8" stroke-linecap="round"/>
<path d="M167.226 134.421L213.427 134.421" stroke="#2C4973" stroke-width="8" stroke-linecap="round"/>
<path d="M167.226 168.924L213.427 168.924" stroke="#2C4973" stroke-width="8" stroke-linecap="round"/>
<path d="M158.521 206.877H213.427" stroke="#2C4973" stroke-width="8" stroke-linecap="round"/>
<path d="M59.7568 206.5V224.824C59.7568 230.347 64.234 234.824 69.7568 234.824H220C225.523 234.824 230 230.347 230 224.824V63.789C230 61.0795 228.901 58.486 226.953 56.602L175.49 6.81301C173.625 5.0087 171.132 4 168.537 4H69.7568C64.234 4 59.7568 8.46677 59.7568 13.9896C59.7568 50.5245 59.7568 107.789 59.7568 101.5" stroke="#2C4973" stroke-width="8"/>
<path d="M53.0606 201.184L41.845 212.57M41.845 212.57H36.5181C33.823 212.57 31.2421 213.657 29.3601 215.587L6.47297 239.047C3.51513 242.079 3.74977 246.984 6.98354 249.719V249.719C9.92514 252.208 14.2942 251.982 16.9637 249.204L40.5356 224.669C43.6735 221.404 44.2115 216.431 41.845 212.57V212.57Z" stroke="#2C4973" stroke-width="8"/>
<path d="M158.873 154.605C158.873 191.643 131.017 221.164 97.2536 221.164C63.4903 221.164 35.6338 191.643 35.6338 154.605C35.6338 117.568 63.4903 88.0469 97.2536 88.0469C131.017 88.0469 158.873 117.568 158.873 154.605Z" stroke="#2C4973" stroke-width="8"/>
</svg>
