<svg width="234" height="256" viewBox="0 0 234 256" fill="none" xmlns="http://www.w3.org/2000/svg">
<path fill-rule="evenodd" clip-rule="evenodd" d="M82.541 63.6895C82.541 61.4803 84.3319 59.6895 86.541 59.6895H208.072C210.281 59.6895 212.072 61.4803 212.072 63.6895C212.072 65.8986 210.281 67.6895 208.072 67.6895H86.541C84.3319 67.6895 82.541 65.8986 82.541 63.6895Z" fill="#E2BB5E"/>
<path fill-rule="evenodd" clip-rule="evenodd" d="M130.389 128.163C132.035 129.636 132.175 132.165 130.701 133.811L97.9534 170.383C91.5733 177.508 80.0857 176.281 75.3556 167.968L66.3249 152.097C65.2323 150.177 65.9032 147.735 67.8232 146.643C69.7433 145.55 72.1855 146.221 73.278 148.141L82.3087 164.011C84.3359 167.574 89.2592 168.1 91.9935 165.046L124.741 128.474C126.215 126.829 128.744 126.689 130.389 128.163Z" fill="#E2BB5E"/>
<path fill-rule="evenodd" clip-rule="evenodd" d="M81.2012 26.9453C81.2012 24.7362 82.992 22.9453 85.2012 22.9453H171.578C173.787 22.9453 175.578 24.7362 175.578 26.9453C175.578 29.1545 173.787 30.9453 171.578 30.9453H85.2012C82.992 30.9453 81.2012 29.1545 81.2012 26.9453Z" fill="#E2BB5E"/>
<path fill-rule="evenodd" clip-rule="evenodd" d="M150.504 99.5723C150.504 97.3631 152.295 95.5723 154.504 95.5723L208.741 95.5723C210.95 95.5723 212.741 97.3631 212.741 99.5723C212.741 101.781 210.95 103.572 208.741 103.572L154.504 103.572C152.295 103.572 150.504 101.781 150.504 99.5723Z" fill="#E2BB5E"/>
<path fill-rule="evenodd" clip-rule="evenodd" d="M163.227 134.422C163.227 132.213 165.017 130.422 167.227 130.422L213.428 130.422C215.637 130.422 217.428 132.213 217.428 134.422C217.428 136.631 215.637 138.422 213.428 138.422L167.227 138.422C165.017 138.422 163.227 136.631 163.227 134.422Z" fill="#E2BB5E"/>
<path fill-rule="evenodd" clip-rule="evenodd" d="M163.227 168.924C163.227 166.715 165.017 164.924 167.227 164.924L213.428 164.924C215.637 164.924 217.428 166.715 217.428 168.924C217.428 171.133 215.637 172.924 213.428 172.924L167.227 172.924C165.017 172.924 163.227 171.133 163.227 168.924Z" fill="#E2BB5E"/>
<path fill-rule="evenodd" clip-rule="evenodd" d="M154.521 206.877C154.521 204.668 156.312 202.877 158.521 202.877H213.428C215.637 202.877 217.428 204.668 217.428 206.877C217.428 209.086 215.637 210.877 213.428 210.877H158.521C156.312 210.877 154.521 209.086 154.521 206.877Z" fill="#E2BB5E"/>
<path fill-rule="evenodd" clip-rule="evenodd" d="M55.7559 13.9992C55.7558 6.2667 62.0243 0 69.7559 0H168.536C172.169 0 175.66 1.41218 178.271 3.93821L229.734 53.7272C232.46 56.3648 233.999 59.9957 233.999 63.789V224.824C233.999 232.556 227.731 238.824 219.999 238.824H69.7559C62.0239 238.824 55.7559 232.556 55.7559 224.824V206H63.7559V224.824C63.7559 228.138 66.4421 230.824 69.7559 230.824H219.999C223.313 230.824 225.999 228.138 225.999 224.824V63.789C225.999 62.1633 225.339 60.6072 224.171 59.4768L172.708 9.68781C171.589 8.60522 170.093 8 168.536 8H69.7559C66.4417 8 63.7559 10.6859 63.7559 13.9991C63.7559 26.7535 63.7561 40.5918 63.7562 53.3655C63.7564 74.1414 63.7566 92.101 63.7563 98.0002L63.7561 102L55.7561 102L55.7563 97.9998C55.7566 92.1016 55.7564 74.1464 55.7562 53.3742C55.7561 40.5982 55.7559 26.7565 55.7559 13.9992Z" fill="#E2BB5E"/>
<path fill-rule="evenodd" clip-rule="evenodd" d="M40.1709 208.57L50.2114 198.377L55.9107 203.991L46.6192 213.424C48.2009 218.244 47.0543 223.659 43.4205 227.441L19.8486 251.975C15.7166 256.276 8.95376 256.625 4.40054 252.773C-0.60494 248.539 -0.968131 240.947 3.61023 236.254L26.4974 212.794C29.1321 210.093 32.7455 208.57 36.5186 208.57H40.1709ZM39.1906 216.57H36.5186C34.9016 216.57 33.353 217.223 32.2238 218.38L9.33665 241.841C7.99934 243.212 8.10543 245.429 9.56749 246.666C10.8975 247.791 12.8728 247.689 14.0797 246.433L37.6516 221.899C39.04 220.453 39.5776 218.45 39.1906 216.57Z" fill="#E2BB5E"/>
<path fill-rule="evenodd" clip-rule="evenodd" d="M97.2545 217.164C128.54 217.164 154.874 189.712 154.874 154.605C154.874 119.499 128.54 92.0469 97.2545 92.0469C65.9688 92.0469 39.6348 119.499 39.6348 154.605C39.6348 189.712 65.9688 217.164 97.2545 217.164ZM97.2545 225.164C133.495 225.164 162.874 193.574 162.874 154.605C162.874 115.637 133.495 84.0469 97.2545 84.0469C61.0137 84.0469 31.6348 115.637 31.6348 154.605C31.6348 193.574 61.0137 225.164 97.2545 225.164Z" fill="#E2BB5E"/>
</svg>
