<svg width="20" height="21" viewBox="0 0 20 21" fill="none" xmlns="http://www.w3.org/2000/svg">
<path d="M19.5387 9.11143L10.6731 1.3632C10.3849 1.11131 10.0054 0.974989 9.61384 0.982735C9.2223 0.99048 8.84906 1.14169 8.57214 1.40476L0.418438 9.15058L0 9.54804V20.967H7.85714V13.8422H12.1429V20.967H20V9.51466L19.5387 9.11143ZM9.64455 2.33955C9.65714 2.33955 9.64937 2.34213 9.64397 2.34718C9.63839 2.34213 9.63196 2.33955 9.64455 2.33955ZM18.5714 19.6099H13.5714V13.8422C13.5714 13.4823 13.4209 13.1371 13.153 12.8826C12.8851 12.6281 12.5217 12.4851 12.1429 12.4851H7.85714C7.47826 12.4851 7.1149 12.6281 6.84699 12.8826C6.57908 13.1371 6.42857 13.4823 6.42857 13.8422V19.6099H1.42857V10.1102L9.64455 2.36436L9.64563 2.36287L18.5714 10.1102V19.6099Z" fill="white"/>
</svg>
