<?xml version="1.0" encoding="UTF-8"?>
<svg id="Layer_1" data-name="Layer 1" xmlns="http://www.w3.org/2000/svg" version="1.1" viewBox="0 0 25 26">
  <defs>
    <style>
      .cls-1 {
        fill: #000;
        stroke-width: 0px;
      }
    </style>
  </defs>
  <path class="cls-1" d="M24.4,10.8L13.3.9c-.4-.3-.8-.5-1.3-.5s-1,.2-1.3.5L.5,10.8l-.5.5v14.6h9.8v-9.1h5.4v9.1h9.8v-14.6s-.6-.5-.6-.5ZM12.1,2.1h0ZM23.2,24.2h-6.2v-7.4c0-.5-.2-.9-.5-1.2s-.8-.5-1.3-.5h-5.4c-.5,0-.9.2-1.3.5-.3.3-.5.8-.5,1.2v7.4H1.8v-12.1L12.1,2.2h0l11.2,9.9v12.1h0Z"/>
</svg>