<svg width="17" height="15" viewBox="0 0 17 15" fill="none" xmlns="http://www.w3.org/2000/svg">
<path d="M16.6079 6.10147L9.07216 0.285803C8.82718 0.0967395 8.50457 -0.00557869 8.17176 0.000234833C7.83895 0.00604835 7.5217 0.119544 7.28632 0.316998L0.355672 6.13085L0 6.42918V15H6.67857V9.65229H10.3214V15H17V6.40413L16.6079 6.10147ZM8.19787 1.01863C8.20857 1.01863 8.20197 1.02057 8.19738 1.02436C8.19263 1.02057 8.18717 1.01863 8.19787 1.01863ZM15.7857 13.9814H11.5357V9.65229C11.5357 9.38214 11.4078 9.12305 11.1801 8.93202C10.9523 8.74099 10.6435 8.63368 10.3214 8.63368H6.67857C6.35652 8.63368 6.04766 8.74099 5.81994 8.93202C5.59222 9.12305 5.46429 9.38214 5.46429 9.65229V13.9814H1.21429V6.85111L8.19787 1.03725C8.19836 1.03687 8.1984 1.03652 8.19878 1.03614L15.7857 6.85111V13.9814Z" fill="#EBEBEC"/>
</svg>
