<svg width="87" height="42" viewBox="0 0 87 42" fill="none" xmlns="http://www.w3.org/2000/svg">
<path fill-rule="evenodd" clip-rule="evenodd" d="M38.5547 41.0204C38.5547 40.4795 38.9932 40.041 39.534 40.041H85.8898C86.4306 40.041 86.8691 40.4795 86.8691 41.0204C86.8691 41.5612 86.4306 41.9997 85.8898 41.9997H39.534C38.9932 41.9997 38.5547 41.5612 38.5547 41.0204Z" fill="#FFE29E"/>
<path d="M80.5905 40.4822L80.3457 37.4789L80.966 37.4299C81.1292 38.0067 81.3305 38.4691 81.5699 38.8173C81.8202 39.1547 82.1085 39.4049 82.435 39.5682C82.7614 39.7205 83.1205 39.7967 83.5123 39.7967C84.0237 39.7967 84.4209 39.6715 84.7038 39.4213C84.9976 39.1601 85.1445 38.801 85.1445 38.344C85.1445 38.0393 85.0629 37.7999 84.8997 37.6258C84.7473 37.4517 84.5243 37.3102 84.2305 37.2014C83.9366 37.0817 83.583 36.9675 83.1695 36.8586C82.7886 36.7498 82.4295 36.6301 82.0922 36.4996C81.7658 36.369 81.4774 36.2057 81.2271 36.0099C80.9877 35.814 80.7973 35.5746 80.6558 35.2917C80.5253 34.9979 80.46 34.6388 80.46 34.2144C80.46 33.703 80.5797 33.2514 80.8191 32.8596C81.0585 32.4679 81.4012 32.1632 81.8474 31.9456C82.3044 31.728 82.843 31.6191 83.4633 31.6191C83.8986 31.6191 84.2849 31.679 84.6222 31.7987C84.9595 31.9184 85.2479 32.0653 85.4873 32.2394L85.6831 31.6191H86.1728L86.3687 34.3123L85.7484 34.2797C85.5526 33.605 85.2696 33.099 84.8997 32.7617C84.5297 32.4135 84.0727 32.2394 83.5286 32.2394C83.0607 32.2394 82.6961 32.3428 82.435 32.5495C82.1738 32.7563 82.0432 33.0555 82.0432 33.4473C82.0432 33.7411 82.1194 33.9805 82.2718 34.1654C82.435 34.3395 82.6635 34.481 82.9573 34.5898C83.2511 34.6986 83.5993 34.8129 84.0019 34.9326C84.4046 35.0523 84.7691 35.1829 85.0955 35.3243C85.4329 35.4658 85.7267 35.6345 85.9769 35.8303C86.2272 36.0262 86.4177 36.271 86.5482 36.5648C86.6788 36.8586 86.7441 37.2123 86.7441 37.6258C86.7441 38.2134 86.6081 38.7194 86.336 39.1438C86.0749 39.5682 85.6995 39.8946 85.2098 40.1231C84.731 40.3516 84.176 40.4659 83.5449 40.4659C83.0988 40.4659 82.6798 40.4061 82.2881 40.2864C81.9072 40.1775 81.5699 40.0143 81.2761 39.7967L81.0802 40.4822H80.5905Z" fill="white"/>
<path d="M75.4958 40.4659C74.6688 40.4659 73.9506 40.2972 73.3412 39.9599C72.7427 39.6226 72.2803 39.1383 71.9538 38.5072C71.6383 37.8652 71.4805 37.1035 71.4805 36.2221C71.4805 35.2427 71.66 34.4157 72.0191 33.7411C72.3891 33.0555 72.8951 32.5332 73.5371 32.1741C74.1791 31.8041 74.9136 31.6191 75.7406 31.6191C76.4044 31.6191 76.9811 31.7443 77.4708 31.9946C77.9605 32.234 78.3359 32.5822 78.5971 33.0392C78.8691 33.4962 79.0051 34.0349 79.0051 34.6551C79.0051 34.851 78.9942 35.0469 78.9725 35.2427C78.9616 35.4386 78.9398 35.6399 78.9072 35.8467H73.7493C73.7493 36.5431 73.8472 37.1252 74.0431 37.5932C74.239 38.0502 74.5165 38.3984 74.8755 38.6378C75.2455 38.8663 75.6808 38.9806 76.1813 38.9806C76.6492 38.9806 77.0845 38.9044 77.4871 38.752C77.8898 38.5997 78.2978 38.344 78.7113 37.9849L79.0867 38.3603C78.695 39.0459 78.189 39.5682 77.5687 39.9273C76.9594 40.2864 76.2684 40.4659 75.4958 40.4659ZM73.7493 35.2264H76.8669C76.8886 35.0958 76.8995 34.9598 76.8995 34.8183C76.9104 34.6769 76.9158 34.53 76.9158 34.3776C76.9158 33.6159 76.807 33.0718 76.5894 32.7454C76.3718 32.4081 76.0399 32.2394 75.5937 32.2394C75.2346 32.2394 74.9245 32.3373 74.6633 32.5332C74.4022 32.7291 74.1954 33.0501 74.0431 33.4962C73.8908 33.9315 73.7928 34.5082 73.7493 35.2264Z" fill="white"/>
<path d="M65.8846 40.2367V39.698L66.6518 39.6001C66.8477 39.5783 66.9673 39.513 67.0109 39.4042C67.0653 39.2954 67.0925 39.0995 67.0925 38.8166V33.5445C67.0925 33.1745 67.0598 32.9242 66.9946 32.7936C66.9293 32.6522 66.7715 32.5706 66.5212 32.5488L65.8193 32.4672L65.8846 31.9285L69.1002 31.7653L69.2634 31.8633V38.8656C69.2634 39.105 69.2906 39.2791 69.345 39.3879C69.3994 39.4967 69.5245 39.5674 69.7204 39.6001L70.5039 39.7144V40.2367H65.8846ZM67.9739 30.2473C67.5495 30.2473 67.2122 30.1331 66.9619 29.9046C66.7116 29.676 66.5865 29.3714 66.5865 28.9905C66.5865 28.6205 66.7062 28.3213 66.9456 28.0928C67.1959 27.8643 67.5386 27.75 67.9739 27.75C68.4092 27.75 68.7465 27.8643 68.9859 28.0928C69.2362 28.3104 69.3613 28.6096 69.3613 28.9905C69.3613 29.3714 69.2307 29.676 68.9696 29.9046C68.7193 30.1331 68.3874 30.2473 67.9739 30.2473Z" fill="white"/>
<path d="M57.6772 40.2374V39.7151L58.379 39.6171C58.5423 39.5845 58.6511 39.5192 58.7055 39.4213C58.7599 39.3125 58.7871 39.1166 58.7871 38.8337V33.5289C58.7871 33.1698 58.7545 32.9195 58.6892 32.778C58.6239 32.6366 58.4715 32.555 58.2321 32.5332L57.5303 32.4679L57.5792 31.9293L60.5989 31.7497L60.7458 31.864L60.8274 33.4636H60.8601C61.1103 32.8651 61.4531 32.4081 61.8884 32.0925C62.3236 31.7769 62.7915 31.6191 63.2921 31.6191C63.8471 31.6191 64.2878 31.7715 64.6142 32.0762C64.9407 32.3809 65.1039 32.7835 65.1039 33.284C65.1039 33.5561 65.0549 33.8009 64.957 34.0185C64.8699 34.2253 64.7339 34.3885 64.5489 34.5082C64.3639 34.617 64.13 34.6714 63.8471 34.6714C63.4771 34.6714 63.1996 34.5953 63.0146 34.4429C62.8405 34.2797 62.7535 34.0838 62.7535 33.8553C62.7535 33.7465 62.7698 33.6377 62.8024 33.5289C62.8459 33.4092 62.9058 33.2731 62.982 33.1208C63.069 32.9685 63.1833 32.7889 63.3247 32.5822C63.0636 32.4842 62.7915 32.4733 62.5086 32.5495C62.2366 32.6257 61.9809 32.7726 61.7415 32.9902C61.5021 33.197 61.3062 33.4636 61.1539 33.79C61.0124 34.1165 60.9417 34.4864 60.9417 34.9V38.8663C60.9417 39.1166 60.9689 39.2961 61.0233 39.4049C61.0777 39.5029 61.1974 39.5573 61.3824 39.5682L62.6066 39.7151V40.2374H57.6772Z" fill="white"/>
<path d="M52.0696 40.4659C51.2099 40.4659 50.4646 40.2972 49.8334 39.9599C49.2023 39.6226 48.7126 39.1383 48.3644 38.5072C48.0271 37.8761 47.8584 37.1144 47.8584 36.2221C47.8584 35.2427 48.038 34.4103 48.397 33.7247C48.767 33.0392 49.2893 32.5169 49.964 32.1578C50.6387 31.7987 51.4276 31.6191 52.3308 31.6191C53.1578 31.6191 53.8759 31.7824 54.4853 32.1088C55.1056 32.4353 55.5844 32.9141 55.9217 33.5452C56.2699 34.1763 56.444 34.9435 56.444 35.8467C56.444 36.7934 56.2645 37.6149 55.9054 38.3113C55.5463 38.9969 55.0403 39.5301 54.3874 39.9109C53.7345 40.2809 52.9619 40.4659 52.0696 40.4659ZM52.3144 39.7804C52.7171 39.7804 53.0544 39.6607 53.3264 39.4213C53.5985 39.1819 53.7998 38.801 53.9303 38.2787C54.0609 37.7455 54.1262 37.0545 54.1262 36.2057C54.1262 35.4984 54.0772 34.9 53.9793 34.4103C53.8923 33.9097 53.7562 33.5071 53.5713 33.2024C53.3971 32.8868 53.1795 32.6583 52.9184 32.5169C52.6681 32.3754 52.3797 32.3047 52.0533 32.3047C51.6506 32.3047 51.3079 32.4189 51.025 32.6475C50.742 32.8651 50.5244 33.2242 50.3721 33.7247C50.2306 34.2253 50.1599 34.8945 50.1599 35.7324C50.1599 36.6791 50.2469 37.4517 50.421 38.0502C50.5951 38.6487 50.84 39.0894 51.1555 39.3723C51.482 39.6443 51.8683 39.7804 52.3144 39.7804Z" fill="white"/>
<path d="M44.5224 40.4645C44.0436 40.4645 43.6356 40.3829 43.2983 40.2197C42.9609 40.0455 42.6998 39.7789 42.5148 39.4199C42.3407 39.0608 42.2536 38.5929 42.2536 38.0161V32.5318H41.0947V31.9931C41.5518 31.9387 41.9108 31.819 42.172 31.6341C42.444 31.4491 42.6508 31.1661 42.7923 30.7853C42.9337 30.3935 43.0371 29.893 43.1024 29.2836L44.2286 29.1367L44.4082 29.251V31.8462H46.7423V32.5318H44.4082V37.7386C44.4082 38.2066 44.4843 38.5602 44.6367 38.7996C44.7999 39.039 45.072 39.1587 45.4528 39.1587C45.714 39.1587 45.9697 39.1097 46.22 39.0118C46.4702 38.903 46.7042 38.7506 46.9218 38.5548L47.1993 38.9628C46.862 39.4307 46.4757 39.8007 46.0404 40.0728C45.616 40.3339 45.11 40.4645 44.5224 40.4645Z" fill="white"/>
<path d="M35.8772 40.4656C35.2787 40.4656 34.7129 40.3677 34.1797 40.1718C33.6465 39.9759 33.1677 39.7148 32.7433 39.3883L32.4821 40.3677H31.9435L31.666 36.6462L32.2699 36.5645C32.4005 37.0651 32.5801 37.5112 32.8086 37.903C33.048 38.2947 33.3146 38.632 33.6084 38.915C33.9131 39.187 34.2395 39.3992 34.5877 39.5515C34.9468 39.693 35.3222 39.7637 35.714 39.7637C36.171 39.7637 36.5573 39.6821 36.8729 39.5189C37.1993 39.3557 37.4442 39.1272 37.6074 38.8334C37.7815 38.5396 37.8685 38.1968 37.8685 37.805C37.8685 37.3589 37.7761 36.9835 37.5911 36.6788C37.4061 36.3632 37.1177 36.0912 36.726 35.8627C36.3451 35.6342 35.85 35.4274 35.2406 35.2424C34.7074 35.0792 34.2341 34.8942 33.8206 34.6875C33.4071 34.4698 33.0534 34.2195 32.7596 33.9366C32.4767 33.6537 32.2591 33.3327 32.1067 32.9736C31.9544 32.6036 31.8782 32.1738 31.8782 31.6841C31.8782 31.2924 31.9381 30.9279 32.0578 30.5905C32.1775 30.2423 32.3461 29.9322 32.5637 29.6601C32.7923 29.3772 33.0643 29.1324 33.3799 28.9256C33.6954 28.7189 34.0491 28.5611 34.4408 28.4523C34.8435 28.3435 35.2678 28.2891 35.714 28.2891C36.2472 28.2891 36.7369 28.3761 37.183 28.5502C37.6292 28.7243 38.0154 28.942 38.3419 29.2031L38.5378 28.2891H39.0601L39.4681 31.8637L38.8642 31.9779C38.6683 31.2815 38.4181 30.7102 38.1134 30.2641C37.8196 29.8179 37.4822 29.4915 37.1014 29.2847C36.7205 29.0671 36.2961 28.9583 35.8282 28.9583C35.2189 28.9583 34.7346 29.1269 34.3755 29.4643C34.0273 29.8016 33.8532 30.2478 33.8532 30.8027C33.8532 31.2271 33.9457 31.5808 34.1307 31.8637C34.3157 32.1466 34.5932 32.3914 34.9632 32.5982C35.344 32.7941 35.8119 32.9845 36.3669 33.1695C36.9218 33.3545 37.417 33.5612 37.8522 33.7897C38.2875 34.0074 38.6575 34.2576 38.9621 34.5406C39.2668 34.8126 39.4953 35.1336 39.6477 35.5036C39.8109 35.8627 39.8925 36.2871 39.8925 36.7767C39.8925 37.3317 39.7837 37.8377 39.5661 38.2947C39.3484 38.7517 39.0492 39.1435 38.6683 39.4699C38.2984 39.7964 37.8685 40.0467 37.3789 40.2208C36.9001 40.384 36.3995 40.4656 35.8772 40.4656Z" fill="white"/>
<path d="M69.2751 23.865L69.0303 20.8617L69.6505 20.8127C69.8137 21.3895 70.0151 21.8519 70.2545 22.2002C70.5047 22.5375 70.7931 22.7878 71.1195 22.951C71.446 23.1033 71.8051 23.1795 72.1968 23.1795C72.7083 23.1795 73.1054 23.0544 73.3884 22.8041C73.6822 22.5429 73.8291 22.1838 73.8291 21.7268C73.8291 21.4221 73.7475 21.1827 73.5842 21.0086C73.4319 20.8345 73.2088 20.693 72.915 20.5842C72.6212 20.4645 72.2676 20.3503 71.8541 20.2415C71.4732 20.1326 71.1141 20.0129 70.7768 19.8824C70.4503 19.7518 70.162 19.5886 69.9117 19.3927C69.6723 19.1968 69.4819 18.9574 69.3404 18.6745C69.2098 18.3807 69.1445 18.0216 69.1445 17.5972C69.1445 17.0858 69.2642 16.6342 69.5036 16.2425C69.743 15.8507 70.0858 15.546 70.5319 15.3284C70.989 15.1108 71.5276 15.002 72.1479 15.002C72.5831 15.002 72.9694 15.0618 73.3068 15.1815C73.6441 15.3012 73.9324 15.4481 74.1718 15.6222L74.3677 15.002H74.8574L75.0533 17.6952L74.433 17.6625C74.2371 16.9879 73.9542 16.4819 73.5842 16.1445C73.2143 15.7963 72.7572 15.6222 72.2131 15.6222C71.7452 15.6222 71.3807 15.7256 71.1195 15.9323C70.8584 16.1391 70.7278 16.4383 70.7278 16.8301C70.7278 17.1239 70.804 17.3633 70.9563 17.5483C71.1195 17.7224 71.3481 17.8638 71.6419 17.9726C71.9357 18.0815 72.2839 18.1957 72.6865 18.3154C73.0891 18.4351 73.4537 18.5657 73.7801 18.7071C74.1174 18.8486 74.4112 19.0173 74.6615 19.2131C74.9118 19.409 75.1022 19.6538 75.2328 19.9477C75.3634 20.2415 75.4287 20.5951 75.4287 21.0086C75.4287 21.5962 75.2926 22.1022 75.0206 22.5266C74.7594 22.951 74.384 23.2774 73.8944 23.5059C73.4156 23.7345 72.8606 23.8487 72.2295 23.8487C71.7833 23.8487 71.3644 23.7889 70.9726 23.6692C70.5918 23.5604 70.2545 23.3971 69.9606 23.1795L69.7648 23.865H69.2751Z" fill="white"/>
<path d="M63.2776 23.8487C62.4179 23.8487 61.6726 23.6801 61.0414 23.3427C60.4103 23.0054 59.9206 22.5212 59.5724 21.89C59.2351 21.2589 59.0664 20.4972 59.0664 19.6049C59.0664 18.6255 59.246 17.7931 59.605 17.1075C59.975 16.422 60.4973 15.8997 61.172 15.5406C61.8467 15.1815 62.6356 15.002 63.5388 15.002C64.3658 15.002 65.0839 15.1652 65.6933 15.4916C66.3136 15.8181 66.7924 16.2969 67.1297 16.928C67.4779 17.5591 67.652 18.3263 67.652 19.2295C67.652 20.1762 67.4725 20.9977 67.1134 21.6942C66.7543 22.3797 66.2483 22.9129 65.5954 23.2938C64.9425 23.6637 64.1699 23.8487 63.2776 23.8487ZM63.5224 23.1632C63.9251 23.1632 64.2624 23.0435 64.5344 22.8041C64.8065 22.5647 65.0078 22.1838 65.1384 21.6615C65.2689 21.1283 65.3342 20.4373 65.3342 19.5886C65.3342 18.8813 65.2853 18.2828 65.1873 17.7931C65.1003 17.2925 64.9642 16.8899 64.7793 16.5852C64.6052 16.2697 64.3875 16.0411 64.1264 15.8997C63.8761 15.7582 63.5877 15.6875 63.2613 15.6875C62.8587 15.6875 62.5159 15.8018 62.233 16.0303C61.95 16.2479 61.7324 16.607 61.5801 17.1075C61.4386 17.6081 61.3679 18.2773 61.3679 19.1152C61.3679 20.0619 61.4549 20.8345 61.629 21.433C61.8031 22.0315 62.048 22.4722 62.3635 22.7551C62.69 23.0272 63.0763 23.1632 63.5224 23.1632Z" fill="white"/>
<path d="M55.7304 23.8493C55.2517 23.8493 54.8436 23.7676 54.5063 23.6044C54.1689 23.4303 53.9078 23.1637 53.7228 22.8046C53.5487 22.4455 53.4616 21.9776 53.4616 21.4009V15.9166H52.3027V15.3779C52.7598 15.3235 53.1189 15.2038 53.38 15.0188C53.6521 14.8338 53.8588 14.5509 54.0003 14.17C54.1417 13.7783 54.2451 13.2778 54.3104 12.6684L55.4366 12.5215L55.6162 12.6357V15.231H57.9503V15.9166H55.6162V21.1234C55.6162 21.5913 55.6924 21.945 55.8447 22.1844C56.0079 22.4238 56.28 22.5435 56.6608 22.5435C56.922 22.5435 57.1777 22.4945 57.428 22.3966C57.6783 22.2877 57.9122 22.1354 58.1298 21.9395L58.4073 22.3476C58.07 22.8155 57.6837 23.1855 57.2484 23.4575C56.8241 23.7187 56.3181 23.8493 55.7304 23.8493Z" fill="white"/>
<path d="M45.1901 23.865L44.9453 20.8617L45.5656 20.8127C45.7288 21.3895 45.9301 21.8519 46.1695 22.2002C46.4198 22.5375 46.7081 22.7878 47.0346 22.951C47.361 23.1033 47.7201 23.1795 48.1119 23.1795C48.6233 23.1795 49.0205 23.0544 49.3034 22.8041C49.5972 22.5429 49.7441 22.1838 49.7441 21.7268C49.7441 21.4221 49.6625 21.1827 49.4993 21.0086C49.3469 20.8345 49.1239 20.693 48.8301 20.5842C48.5362 20.4645 48.1826 20.3503 47.7691 20.2415C47.3882 20.1326 47.0291 20.0129 46.6918 19.8824C46.3654 19.7518 46.077 19.5886 45.8267 19.3927C45.5873 19.1968 45.3969 18.9574 45.2554 18.6745C45.1249 18.3807 45.0596 18.0216 45.0596 17.5972C45.0596 17.0858 45.1793 16.6342 45.4187 16.2425C45.6581 15.8507 46.0008 15.546 46.447 15.3284C46.904 15.1108 47.4426 15.002 48.0629 15.002C48.4982 15.002 48.8845 15.0618 49.2218 15.1815C49.5591 15.3012 49.8475 15.4481 50.0869 15.6222L50.2827 15.002H50.7724L50.9683 17.6952L50.348 17.6625C50.1522 16.9879 49.8692 16.4819 49.4993 16.1445C49.1293 15.7963 48.6723 15.6222 48.1282 15.6222C47.6603 15.6222 47.2957 15.7256 47.0346 15.9323C46.7734 16.1391 46.6428 16.4383 46.6428 16.8301C46.6428 17.1239 46.719 17.3633 46.8714 17.5483C47.0346 17.7224 47.2631 17.8638 47.5569 17.9726C47.8507 18.0815 48.1989 18.1957 48.6015 18.3154C49.0042 18.4351 49.3687 18.5657 49.6951 18.7071C50.0325 18.8486 50.3263 19.0173 50.5766 19.2131C50.8268 19.409 51.0173 19.6538 51.1478 19.9477C51.2784 20.2415 51.3437 20.5951 51.3437 21.0086C51.3437 21.5962 51.2077 22.1022 50.9356 22.5266C50.6745 22.951 50.2991 23.2774 49.8094 23.5059C49.3306 23.7345 48.7756 23.8487 48.1445 23.8487C47.6984 23.8487 47.2794 23.7889 46.8877 23.6692C46.5068 23.5604 46.1695 23.3971 45.8757 23.1795L45.6798 23.865H45.1901Z" fill="white"/>
<path d="M40.0964 23.8487C39.2694 23.8487 38.5512 23.6801 37.9418 23.3427C37.3433 23.0054 36.8809 22.5212 36.5544 21.89C36.2388 21.248 36.0811 20.4863 36.0811 19.6049C36.0811 18.6255 36.2606 17.7985 36.6197 17.1239C36.9897 16.4383 37.4957 15.916 38.1377 15.5569C38.7797 15.1869 39.5142 15.002 40.3412 15.002C41.005 15.002 41.5817 15.1271 42.0714 15.3774C42.5611 15.6168 42.9365 15.965 43.1976 16.422C43.4697 16.879 43.6057 17.4177 43.6057 18.0379C43.6057 18.2338 43.5948 18.4297 43.5731 18.6255C43.5622 18.8214 43.5404 19.0227 43.5078 19.2295H38.3499C38.3499 19.9259 38.4478 20.5081 38.6437 20.976C38.8395 21.433 39.117 21.7812 39.4761 22.0206C39.8461 22.2491 40.2814 22.3634 40.7819 22.3634C41.2498 22.3634 41.6851 22.2872 42.0877 22.1349C42.4903 21.9825 42.8984 21.7268 43.3119 21.3677L43.6873 21.7431C43.2956 22.4287 42.7896 22.951 42.1693 23.3101C41.56 23.6692 40.869 23.8487 40.0964 23.8487ZM38.3499 18.6092H41.4675C41.4892 18.4786 41.5001 18.3426 41.5001 18.2012C41.511 18.0597 41.5164 17.9128 41.5164 17.7604C41.5164 16.9987 41.4076 16.4547 41.19 16.1282C40.9723 15.7909 40.6405 15.6222 40.1943 15.6222C39.8352 15.6222 39.5251 15.7201 39.2639 15.916C39.0028 16.1119 38.796 16.4329 38.6437 16.879C38.4913 17.3143 38.3934 17.891 38.3499 18.6092Z" fill="white"/>
<path d="M26.9474 23.8005L26.4424 23.6864V12.8295C26.4424 12.2427 26.4424 12.2427 26.4424 12.2427L26.4424 11.7536V11.5906L26.4424 11.1016H28.446H28.7466V16.3833L28.6252 16.4648C28.8207 16.1279 29.0433 15.8562 29.2931 15.6497C29.5537 15.4323 29.847 15.2693 30.1728 15.1606C30.4986 15.052 30.8515 14.9976 31.2316 14.9976C31.9158 14.9976 32.5076 15.1552 33.0072 15.4704C33.5176 15.7747 33.9086 16.2311 34.1801 16.8397C34.4624 17.4374 34.6036 18.1927 34.6036 19.1056C34.6036 20.0837 34.4461 20.926 34.1312 21.6324C33.8163 22.3388 33.3547 22.8821 32.7466 23.2625C32.1493 23.6429 31.4217 23.8331 30.5637 23.8331C30.0859 23.8331 29.6406 23.7624 29.2279 23.6211C28.8153 23.4907 28.446 23.3169 28.1202 23.0995L26.9474 23.8005ZM30.3194 23.0995C30.7429 23.0995 31.1013 22.98 31.3945 22.7409C31.6986 22.5018 31.9266 22.116 32.0787 21.5835C32.2307 21.0401 32.3067 20.3228 32.3067 19.4317C32.3067 18.6166 32.2361 17.9645 32.095 17.4755C31.9538 16.9756 31.742 16.6115 31.4597 16.3833C31.1882 16.1442 30.8406 16.0246 30.4171 16.0246C30.0587 16.0246 29.7438 16.1061 29.4723 16.2692C29.2008 16.4213 28.989 16.6495 28.837 16.9538C28.685 17.2581 28.6089 17.6439 28.6089 18.1112V22.4148C28.8261 22.6105 29.0813 22.7735 29.3746 22.9039C29.6678 23.0343 29.9827 23.0995 30.3194 23.0995Z" fill="white"/>
<path d="M18.5388 23.865L18.2939 20.8617L18.9142 20.8127C19.0774 21.3895 19.2787 21.8519 19.5181 22.2002C19.7684 22.5375 20.0568 22.7878 20.3832 22.951C20.7097 23.1033 21.0688 23.1795 21.4605 23.1795C21.9719 23.1795 22.3691 23.0544 22.652 22.8041C22.9458 22.5429 23.0927 22.1838 23.0927 21.7268C23.0927 21.4221 23.0111 21.1827 22.8479 21.0086C22.6956 20.8345 22.4725 20.693 22.1787 20.5842C21.8849 20.4645 21.5312 20.3503 21.1177 20.2415C20.7369 20.1326 20.3778 20.0129 20.0404 19.8824C19.714 19.7518 19.4256 19.5886 19.1754 19.3927C18.936 19.1968 18.7455 18.9574 18.6041 18.6745C18.4735 18.3807 18.4082 18.0216 18.4082 17.5972C18.4082 17.0858 18.5279 16.6342 18.7673 16.2425C19.0067 15.8507 19.3495 15.546 19.7956 15.3284C20.2526 15.1108 20.7913 15.002 21.4115 15.002C21.8468 15.002 22.2331 15.0618 22.5704 15.1815C22.9078 15.3012 23.1961 15.4481 23.4355 15.6222L23.6314 15.002H24.1211L24.3169 17.6952L23.6967 17.6625C23.5008 16.9879 23.2179 16.4819 22.8479 16.1445C22.4779 15.7963 22.0209 15.6222 21.4768 15.6222C21.0089 15.6222 20.6444 15.7256 20.3832 15.9323C20.1221 16.1391 19.9915 16.4383 19.9915 16.8301C19.9915 17.1239 20.0677 17.3633 20.22 17.5483C20.3832 17.7224 20.6117 17.8638 20.9055 17.9726C21.1993 18.0815 21.5476 18.1957 21.9502 18.3154C22.3528 18.4351 22.7173 18.5657 23.0438 18.7071C23.3811 18.8486 23.6749 19.0173 23.9252 19.2131C24.1755 19.409 24.3659 19.6538 24.4965 19.9477C24.6271 20.2415 24.6923 20.5951 24.6923 21.0086C24.6923 21.5962 24.5563 22.1022 24.2843 22.5266C24.0231 22.951 23.6477 23.2774 23.158 23.5059C22.6792 23.7345 22.1243 23.8487 21.4931 23.8487C21.047 23.8487 20.6281 23.7889 20.2363 23.6692C19.8555 23.5604 19.5181 23.3971 19.2243 23.1795L19.0285 23.865H18.5388Z" fill="white"/>
<path d="M5.87598 23.6199V23.0813L6.52887 22.967C6.72474 22.9235 6.87709 22.8473 6.9859 22.7385C7.09472 22.6297 7.20898 22.4066 7.32867 22.0693L10.8054 11.9004H12.6661L16.1591 22.1019C16.2679 22.3957 16.3659 22.6025 16.4529 22.7222C16.54 22.831 16.6978 22.9072 16.9263 22.9507L17.5139 23.0649V23.6199H12.6171V23.0813L13.4169 22.9833C13.6346 22.9507 13.7652 22.8745 13.8087 22.7548C13.8631 22.6242 13.8468 22.4229 13.7597 22.1509L13.0252 19.7678H8.9446L8.19376 22.0693C8.10671 22.3304 8.08495 22.5426 8.12847 22.7058C8.18288 22.8582 8.34067 22.9507 8.60182 22.9833L9.46691 23.0976V23.6199H5.87598ZM9.18943 19.1149H12.813L11.0502 13.549H11.0012L9.18943 19.1149Z" fill="white"/>
<path fill-rule="evenodd" clip-rule="evenodd" d="M0.588127 2.17662C13.2779 -3.35293 24.4175 2.94346 28.4269 6.7986C28.8168 7.17348 28.829 7.79345 28.4541 8.18334C28.0792 8.57323 27.4593 8.58539 27.0694 8.21051C23.4613 4.7413 13.4252 -0.93614 1.95869 3.7246V31.6978C4.68168 31.0061 8.40757 31.1365 12.4633 31.7702C17.304 32.5266 22.8156 34.0348 28.086 35.9718C28.5937 36.1584 28.854 36.7212 28.6674 37.2289C28.4808 37.7366 27.918 37.9969 27.4103 37.8103C22.2343 35.9079 16.8491 34.438 12.1609 33.7054C7.41397 32.9637 3.57631 33.0111 1.36274 33.9528C1.06024 34.0815 0.713345 34.0498 0.43914 33.8685C0.164935 33.6872 0 33.3804 0 33.0516V3.07443C0 2.68481 0.230949 2.33226 0.588127 2.17662Z" fill="white"/>
<path fill-rule="evenodd" clip-rule="evenodd" d="M54.8914 2.06643C42.2256 -3.18163 31.1024 2.78961 27.0869 6.46097C26.6877 6.82594 26.6599 7.4454 27.0249 7.84459C27.3899 8.24377 28.0093 8.27151 28.4085 7.90654C32.0721 4.55694 42.4073 -0.986171 54.1416 3.87594C54.6413 4.08298 55.2142 3.84575 55.4212 3.34607C55.6283 2.84638 55.3911 2.27347 54.8914 2.06643Z" fill="white"/>
<path fill-rule="evenodd" clip-rule="evenodd" d="M54.5165 2.28711C55.0573 2.28711 55.4958 2.72558 55.4958 3.26646V8.16319C55.4958 8.70407 55.0573 9.14253 54.5165 9.14253C53.9756 9.14253 53.5371 8.70407 53.5371 8.16319V3.26646C53.5371 2.72558 53.9756 2.28711 54.5165 2.28711Z" fill="white"/>
<path fill-rule="evenodd" clip-rule="evenodd" d="M27.585 7.18359C28.216 7.18359 28.7275 7.46466 28.7275 7.81138L28.7275 14.717C28.7275 15.0637 28.216 15.3448 27.585 15.3448C26.9539 15.3448 26.4424 15.0637 26.4424 14.717L26.4424 7.81138C26.4424 7.46466 26.9539 7.18359 27.585 7.18359Z" fill="white"/>
</svg>
