<svg width="288" height="247" viewBox="0 0 288 247" fill="none" xmlns="http://www.w3.org/2000/svg">
<path d="M86.1953 127.451C91.6309 128.074 96.0912 147.095 92.1904 148.009" stroke="#E2BB5E" stroke-width="8" stroke-linecap="round"/>
<path d="M200.893 127.398C195.457 128.021 190.997 147.043 194.897 147.956" stroke="#E2BB5E" stroke-width="8" stroke-linecap="round"/>
<path d="M68.0059 100.664C72.0232 115.515 85.7045 140.698 108.291 122.619" stroke="#E2BB5E" stroke-width="8" stroke-linecap="round"/>
<path d="M219.084 100.611C215.067 115.462 201.385 140.645 178.799 122.567" stroke="#E2BB5E" stroke-width="8" stroke-linecap="round"/>
<path d="M71.1461 223.492C66.1049 217.124 57.7954 203.433 63.8449 198.158" stroke="#E2BB5E" stroke-width="8" stroke-linecap="round"/>
<path d="M215.942 223.439C220.983 217.071 229.292 203.38 223.243 198.105" stroke="#E2BB5E" stroke-width="8" stroke-linecap="round"/>
<path d="M58.4721 133.68C66.6121 149.288 79.7192 185.002 62.0457 199.87C44.3723 214.738 38.1852 218.247 37.3008 218.143" stroke="#E2BB5E" stroke-width="8" stroke-linecap="round"/>
<path d="M228.618 133.629C220.478 149.238 207.371 184.951 225.044 199.819C242.718 214.687 248.905 218.196 249.789 218.092" stroke="#E2BB5E" stroke-width="8" stroke-linecap="round"/>
<path d="M40.244 109.385C44.0369 112.929 53.253 118.805 59.7733 113.949M58.6619 133.349C54.3573 142.202 40.5403 159.98 24.5781 155.498" stroke="#E2BB5E" stroke-width="8" stroke-linecap="round"/>
<path d="M246.844 109.332C243.051 112.877 233.835 118.752 227.315 113.897M228.426 133.297C232.731 142.149 246.548 159.927 262.51 155.446" stroke="#E2BB5E" stroke-width="8" stroke-linecap="round"/>
<path d="M41.8362 178.949C39.0374 171.358 41.3609 152.175 49.9158 145.828" stroke="#E2BB5E" stroke-width="8" stroke-linecap="round"/>
<path d="M245.252 178.896C248.05 171.305 245.727 152.122 237.172 145.775" stroke="#E2BB5E" stroke-width="8" stroke-linecap="round"/>
<path d="M122.165 179.767C114.464 182.338 94.71 181.122 87.9298 174.329" stroke="#E2BB5E" stroke-width="8" stroke-linecap="round"/>
<path d="M164.925 179.716C172.626 182.287 192.38 181.072 199.16 174.278" stroke="#E2BB5E" stroke-width="8" stroke-linecap="round"/>
<path d="M95.5071 206.788C97.6083 199.259 95.1651 180.433 87.9322 174.368" stroke="#E2BB5E" stroke-width="8" stroke-linecap="round"/>
<path d="M191.583 206.735C189.482 199.206 191.925 180.38 199.158 174.316" stroke="#E2BB5E" stroke-width="8" stroke-linecap="round"/>
<path d="M81.2144 89.7617C62.2271 100.023 37.2475 131.531 89.2281 175.471" stroke="#E2BB5E" stroke-width="8" stroke-linecap="round"/>
<path d="M205.873 89.709C224.861 99.9706 249.84 131.479 197.86 175.418" stroke="#E2BB5E" stroke-width="8" stroke-linecap="round"/>
<path d="M112.512 61.2611C103.072 38.6267 66.5748 21.1396 17.9178 140.845C-46.0832 298.299 131.409 240.706 131.409 182.635C131.409 140.845 126.915 114.542 127.998 105.699" stroke="#E2BB5E" stroke-width="8" stroke-linecap="round"/>
<path d="M174.576 61.2083C184.016 38.5739 220.513 21.0869 269.17 140.792C333.171 298.246 155.679 240.654 155.679 182.583C155.679 140.792 160.173 114.489 159.09 105.646" stroke="#E2BB5E" stroke-width="8" stroke-linecap="round"/>
<path d="M133.031 4.05078C137.056 33.209 134.666 89.075 92.9082 79.2737" stroke="#E2BB5E" stroke-width="8" stroke-linecap="round"/>
<path d="M154.057 4C150.032 33.1582 152.422 89.0242 194.18 79.2229" stroke="#E2BB5E" stroke-width="8" stroke-linecap="round"/>
<path d="M101.252 101.858C109.428 106.27 144.049 84.6534 143.27 74.8105" stroke="#E2BB5E" stroke-width="8" stroke-linecap="round"/>
<path d="M185.838 101.805C177.662 106.218 143.041 84.6006 143.82 74.7578" stroke="#E2BB5E" stroke-width="8" stroke-linecap="round"/>
</svg>
