<svg width="288" height="247" viewBox="0 0 288 247" fill="none" xmlns="http://www.w3.org/2000/svg">
<path fill-rule="evenodd" clip-rule="evenodd" d="M82.2227 126.996C82.4742 124.801 84.4573 123.226 86.6521 123.478C88.4563 123.684 89.8736 124.607 90.8774 125.527C91.894 126.459 92.7304 127.606 93.4126 128.753C94.7793 131.05 95.8462 133.888 96.5627 136.6C97.2765 139.302 97.7211 142.178 97.6639 144.594C97.636 145.773 97.4845 147.127 96.9968 148.36C96.5123 149.585 95.3905 151.368 93.104 151.904C90.9531 152.408 88.801 151.073 88.2972 148.922C87.9398 147.396 88.5078 145.869 89.636 144.931C89.6497 144.79 89.6612 144.616 89.6662 144.405C89.6999 142.978 89.4211 140.888 88.828 138.643C88.2375 136.408 87.414 134.317 86.5375 132.843C86.0982 132.105 85.7248 131.657 85.4723 131.425C85.451 131.406 85.4319 131.389 85.4151 131.375C83.3927 130.974 81.9838 129.081 82.2227 126.996ZM85.3234 131.305C85.3234 131.305 85.3271 131.307 85.3344 131.312C85.3271 131.308 85.3234 131.305 85.3234 131.305Z" fill="#2C4973"/>
<path fill-rule="evenodd" clip-rule="evenodd" d="M204.868 126.944C204.617 124.75 202.633 123.174 200.439 123.426C198.635 123.633 197.217 124.556 196.213 125.476C195.197 126.407 194.36 127.554 193.678 128.701C192.312 130.998 191.245 133.836 190.528 136.548C189.814 139.25 189.37 142.126 189.427 144.542C189.455 145.722 189.606 147.075 190.094 148.308C190.578 149.533 191.7 151.317 193.987 151.852C196.138 152.356 198.29 151.021 198.794 148.87C199.151 147.344 198.583 145.818 197.455 144.879C197.441 144.738 197.43 144.564 197.425 144.353C197.391 142.926 197.67 140.836 198.263 138.591C198.853 136.356 199.677 134.265 200.553 132.792C200.993 132.053 201.366 131.605 201.618 131.373C201.64 131.354 201.659 131.337 201.676 131.323C203.698 130.922 205.107 129.029 204.868 126.944ZM201.767 131.253C201.767 131.253 201.764 131.255 201.756 131.26C201.764 131.256 201.767 131.253 201.767 131.253Z" fill="#2C4973"/>
<path fill-rule="evenodd" clip-rule="evenodd" d="M66.9614 96.8029C69.0939 96.226 71.2902 97.4871 71.8671 99.6196C73.7876 106.719 77.9342 115.84 83.8164 120.978C86.6691 123.469 89.7405 124.867 93.0775 124.904C96.4267 124.942 100.645 123.616 105.791 119.496C107.516 118.116 110.033 118.395 111.414 120.12C112.794 121.844 112.515 124.362 110.79 125.742C104.644 130.662 98.6818 132.968 92.9879 132.904C87.2816 132.84 82.4467 130.403 78.5536 127.003C70.9443 120.356 66.2415 109.46 64.1447 101.709C63.5678 99.5761 64.8289 97.3797 66.9614 96.8029Z" fill="#2C4973"/>
<path fill-rule="evenodd" clip-rule="evenodd" d="M220.129 96.7501C217.997 96.1733 215.801 97.4344 215.224 99.5669C213.303 106.667 209.157 115.787 203.274 120.925C200.422 123.417 197.35 124.814 194.013 124.852C190.664 124.889 186.446 123.563 181.299 119.444C179.575 118.063 177.058 118.342 175.677 120.067C174.297 121.792 174.576 124.309 176.3 125.689C182.447 130.609 188.409 132.915 194.103 132.851C199.809 132.787 204.644 130.351 208.537 126.95C216.147 120.304 220.849 109.407 222.946 101.656C223.523 99.5233 222.262 97.327 220.129 96.7501Z" fill="#2C4973"/>
<path fill-rule="evenodd" clip-rule="evenodd" d="M66.8609 195.529C68.3126 197.194 68.1397 199.72 66.4746 201.172C66.0809 201.516 65.7212 202.1 65.7256 203.432C65.7303 204.846 66.1672 206.718 67.0513 208.929C68.81 213.325 71.9031 218.002 74.2833 221.008C75.6545 222.74 75.3619 225.256 73.6298 226.627C71.8977 227.999 69.382 227.706 68.0108 225.974C65.3498 222.612 61.7675 217.26 59.6236 211.9C58.5564 209.232 57.7351 206.294 57.7257 203.459C57.716 200.542 58.5862 197.436 61.2172 195.142C62.8823 193.691 65.4091 193.863 66.8609 195.529Z" fill="#2C4973"/>
<path fill-rule="evenodd" clip-rule="evenodd" d="M220.23 195.477C218.778 197.142 218.951 199.669 220.616 201.12C221.01 201.464 221.37 202.048 221.365 203.38C221.36 204.795 220.924 206.667 220.039 208.877C218.281 213.273 215.188 217.95 212.808 220.957C211.436 222.689 211.729 225.204 213.461 226.576C215.193 227.947 217.709 227.654 219.08 225.922C221.741 222.561 225.323 217.208 227.467 211.848C228.534 209.18 229.356 206.242 229.365 203.407C229.375 200.49 228.505 197.384 225.874 195.091C224.209 193.639 221.682 193.812 220.23 195.477Z" fill="#2C4973"/>
<path fill-rule="evenodd" clip-rule="evenodd" d="M56.6228 130.134C58.5816 129.112 60.9976 129.872 62.0191 131.831C66.2132 139.873 71.7115 153.118 73.8868 166.407C76.0215 179.448 75.1737 194.054 64.6212 202.931C55.7387 210.404 49.677 215.078 45.6809 217.892C43.6895 219.295 42.1542 220.275 41.0033 220.917C40.4343 221.234 39.8854 221.51 39.376 221.714C39.1222 221.815 38.8107 221.925 38.4663 222.008C38.1829 222.077 37.5743 222.204 36.8348 222.117C34.6407 221.859 33.0709 219.872 33.3284 217.678C33.5381 215.892 34.8942 214.519 36.5748 214.21C36.6916 214.153 36.8662 214.064 37.1074 213.93C37.9176 213.478 39.1995 212.672 41.0747 211.351C44.8115 208.72 50.6801 204.205 59.4711 196.81C66.592 190.819 68.0274 180.134 65.9919 167.699C63.997 155.513 58.8717 143.097 54.9258 135.53C53.9043 133.571 54.6641 131.155 56.6228 130.134ZM36.4023 214.287C36.4023 214.287 36.4044 214.286 36.4084 214.284C36.4043 214.286 36.4023 214.287 36.4023 214.287Z" fill="#2C4973"/>
<path fill-rule="evenodd" clip-rule="evenodd" d="M230.468 130.082C228.509 129.061 226.093 129.82 225.072 131.779C220.878 139.821 215.379 153.066 213.204 166.355C211.069 179.396 211.917 194.002 222.47 202.88C231.352 210.352 237.414 215.026 241.41 217.84C243.401 219.243 244.937 220.224 246.088 220.865C246.656 221.183 247.205 221.459 247.715 221.662C247.969 221.763 248.28 221.874 248.624 221.957C248.908 222.025 249.517 222.152 250.256 222.065C252.45 221.807 254.02 219.82 253.762 217.626C253.553 215.84 252.197 214.467 250.516 214.158C250.399 214.102 250.225 214.013 249.983 213.878C249.173 213.426 247.891 212.62 246.016 211.3C242.279 208.668 236.411 204.153 227.62 196.758C220.499 190.767 219.063 180.083 221.099 167.648C223.094 155.461 228.219 143.045 232.165 135.478C233.187 133.52 232.427 131.104 230.468 130.082ZM250.689 214.235C250.689 214.235 250.686 214.234 250.682 214.233C250.686 214.234 250.689 214.235 250.689 214.235Z" fill="#2C4973"/>
<path fill-rule="evenodd" clip-rule="evenodd" d="M37.3225 106.655C38.8308 105.041 41.362 104.955 42.9761 106.463C44.5879 107.97 47.3902 109.982 50.3524 111.058C53.3309 112.14 55.661 112.026 57.3854 110.742C59.1573 109.423 61.6633 109.79 62.9826 111.562C64.302 113.333 63.9352 115.839 62.1633 117.159C57.3673 120.73 51.8292 120.106 47.6214 118.578C43.3972 117.044 39.695 114.347 37.5139 112.308C35.8998 110.8 35.8141 108.269 37.3225 106.655ZM60.4121 129.753C62.3988 130.719 63.2262 133.113 62.2602 135.099C59.9011 139.951 55.0431 147.089 48.5538 152.498C42.0839 157.891 33.2912 162.1 23.4979 159.351C21.371 158.753 20.1309 156.545 20.7281 154.418C21.3252 152.291 23.5335 151.051 25.6604 151.648C31.8293 153.38 37.9262 150.942 43.4315 146.353C48.9174 141.78 53.1202 135.602 55.0656 131.601C56.0317 129.614 58.4254 128.787 60.4121 129.753Z" fill="#2C4973"/>
<path fill-rule="evenodd" clip-rule="evenodd" d="M249.768 106.602C248.26 104.988 245.729 104.902 244.115 106.411C242.503 107.917 239.701 109.93 236.738 111.006C233.76 112.087 231.43 111.973 229.705 110.689C227.934 109.37 225.428 109.737 224.108 111.509C222.789 113.281 223.156 115.787 224.928 117.106C229.724 120.677 235.262 120.053 239.469 118.525C243.694 116.991 247.396 114.294 249.577 112.256C251.191 110.747 251.277 108.216 249.768 106.602ZM226.679 129.7C224.692 130.666 223.865 133.06 224.831 135.047C227.19 139.899 232.048 147.036 238.537 152.445C245.007 157.838 253.8 162.047 263.593 159.298C265.72 158.701 266.96 156.492 266.363 154.365C265.766 152.239 263.557 150.998 261.43 151.596C255.262 153.328 249.165 150.889 243.659 146.3C238.173 141.727 233.971 135.549 232.025 131.548C231.059 129.562 228.665 128.734 226.679 129.7Z" fill="#2C4973"/>
<path fill-rule="evenodd" clip-rule="evenodd" d="M53.1302 143.445C54.4465 145.219 54.0753 147.725 52.3011 149.041C49.2486 151.305 46.7882 156.444 45.5435 162.702C44.3096 168.906 44.5559 174.758 45.5912 177.566C46.3554 179.638 45.2946 181.938 43.2219 182.702C41.1491 183.467 38.8493 182.406 38.0851 180.333C36.3216 175.55 36.3302 168.014 37.6971 161.142C39.0532 154.324 42.032 146.698 47.5345 142.616C49.3087 141.3 51.814 141.671 53.1302 143.445Z" fill="#2C4973"/>
<path fill-rule="evenodd" clip-rule="evenodd" d="M233.962 143.393C232.645 145.168 233.017 147.673 234.791 148.989C237.843 151.254 240.304 156.393 241.548 162.651C242.782 168.854 242.536 174.706 241.501 177.514C240.736 179.587 241.797 181.886 243.87 182.651C245.943 183.415 248.242 182.354 249.007 180.281C250.77 175.498 250.762 167.963 249.395 161.09C248.039 154.272 245.06 146.646 239.557 142.564C237.783 141.248 235.278 141.619 233.962 143.393Z" fill="#2C4973"/>
<path fill-rule="evenodd" clip-rule="evenodd" d="M85.1007 171.495C86.6622 169.937 89.1952 169.943 90.7582 171.509C91.8569 172.61 93.7343 173.706 96.3747 174.635C98.9635 175.545 102.015 176.201 105.18 176.591C111.66 177.389 117.845 176.99 120.888 175.974C122.981 175.275 125.251 176.406 125.956 178.502C126.662 180.597 125.537 182.862 123.443 183.562C118.786 185.117 111.243 185.395 104.226 184.53C100.642 184.088 97.0028 183.327 93.7401 182.18C90.5291 181.05 87.3946 179.447 85.1033 177.151C83.5403 175.585 83.5391 173.053 85.1007 171.495Z" fill="#2C4973"/>
<path fill-rule="evenodd" clip-rule="evenodd" d="M201.99 171.443C200.429 169.885 197.896 169.892 196.333 171.458C195.234 172.559 193.356 173.654 190.716 174.583C188.127 175.494 185.076 176.149 181.911 176.539C175.431 177.338 169.246 176.938 166.203 175.922C164.109 175.223 161.84 176.355 161.134 178.45C160.429 180.545 161.554 182.811 163.648 183.51C168.305 185.065 175.848 185.343 182.865 184.478C186.448 184.037 190.088 183.275 193.351 182.128C196.562 180.998 199.696 179.395 201.988 177.099C203.551 175.533 203.552 173.001 201.99 171.443Z" fill="#2C4973"/>
<path fill-rule="evenodd" clip-rule="evenodd" d="M84.864 171.795C83.4467 173.486 83.6717 176.009 85.3664 177.43C86.5246 178.401 87.7238 180.106 88.8069 182.548C89.8702 184.945 90.7107 187.801 91.2945 190.787C92.4922 196.914 92.4656 202.797 91.6543 205.704C91.0608 207.831 92.3049 210.039 94.4329 210.637C96.561 211.236 98.7672 209.997 99.3607 207.87C100.651 203.248 100.453 195.954 99.1462 189.269C98.4777 185.85 97.4827 182.392 96.1192 179.318C94.7757 176.289 92.9572 173.366 90.4989 171.305C88.8041 169.884 86.2813 170.104 84.864 171.795Z" fill="#2C4973"/>
<path fill-rule="evenodd" clip-rule="evenodd" d="M202.227 171.743C203.644 173.435 203.419 175.958 201.724 177.378C200.566 178.35 199.367 180.054 198.284 182.496C197.221 184.893 196.38 187.749 195.796 190.735C194.599 196.862 194.625 202.745 195.437 205.652C196.03 207.779 194.786 209.988 192.658 210.586C190.53 211.184 188.324 209.945 187.73 207.819C186.44 203.197 186.638 195.902 187.945 189.218C188.613 185.798 189.608 182.34 190.972 179.266C192.315 176.238 194.134 173.315 196.592 171.254C198.287 169.833 200.809 170.052 202.227 171.743Z" fill="#2C4973"/>
<path fill-rule="evenodd" clip-rule="evenodd" d="M84.7349 87.8597C85.7853 89.8032 85.0612 92.2301 83.1178 93.2805C74.2782 98.0578 64.4445 107.599 62.5686 120.56C60.7271 133.283 66.3515 150.894 91.8119 172.416C93.499 173.842 93.7106 176.366 92.2845 178.053C90.8583 179.74 88.3345 179.952 86.6474 178.526C60.1272 156.108 52.2511 135.995 54.6511 119.414C57.0166 103.071 69.1664 91.7268 79.3142 86.2425C81.2576 85.1922 83.6846 85.9162 84.7349 87.8597Z" fill="#2C4973"/>
<path fill-rule="evenodd" clip-rule="evenodd" d="M202.356 87.8079C201.306 89.7514 202.03 92.1784 203.973 93.2287C212.813 98.006 222.646 107.547 224.522 120.508C226.364 133.231 220.739 150.842 195.279 172.364C193.592 173.791 193.38 176.314 194.806 178.002C196.233 179.689 198.756 179.9 200.443 178.474C226.964 156.056 234.84 135.944 232.44 119.362C230.074 103.019 217.924 91.6751 207.777 86.1908C205.833 85.1404 203.406 85.8645 202.356 87.8079Z" fill="#2C4973"/>
<path fill-rule="evenodd" clip-rule="evenodd" d="M102.482 43.7878C109.014 47.288 113.595 53.4647 116.205 59.7214C117.055 61.7603 116.091 64.1025 114.052 64.9528C112.013 65.8031 109.671 64.8396 108.821 62.8007C106.71 57.7401 103.189 53.2431 98.7033 50.8393C94.4021 48.5347 88.7764 47.9076 81.6347 51.2905C74.3185 54.7561 65.3846 62.4685 55.1734 77.0235C44.9919 91.5361 33.7199 112.594 21.6244 142.351C5.73314 181.446 5.37973 205.98 12.254 220.229C18.9154 234.036 33.123 239.509 50.447 238.568C67.774 237.627 87.2459 230.217 102.361 219.485C117.654 208.626 127.41 195.181 127.41 182.635C127.41 161.886 126.295 144.977 125.31 132.117C125.161 130.175 125.015 128.316 124.875 126.546C124.555 122.483 124.271 118.886 124.082 115.82C123.815 111.488 123.707 107.838 124.028 105.213C124.297 103.02 126.292 101.46 128.485 101.729C130.678 101.997 132.237 103.993 131.969 106.185C131.749 107.981 131.796 110.936 132.067 115.328C132.252 118.323 132.527 121.811 132.844 125.834C132.985 127.618 133.133 129.508 133.286 131.506C134.278 144.456 135.41 161.594 135.41 182.635C135.41 199.125 122.979 214.656 106.993 226.008C90.8277 237.486 69.9267 245.522 50.8808 246.556C31.8319 247.591 13.6667 241.568 5.04868 223.705C-3.35654 206.283 -1.89606 178.97 14.2132 139.338C26.4462 109.243 37.9828 87.5972 48.6243 72.4289C59.2361 57.303 69.1398 48.3571 78.2099 44.0606C87.4547 39.6815 95.7642 40.1885 102.482 43.7878Z" fill="#2C4973"/>
<path fill-rule="evenodd" clip-rule="evenodd" d="M184.609 43.736C178.077 47.2362 173.496 53.413 170.886 59.6696C170.036 61.7085 171 64.0507 173.038 64.9011C175.077 65.7514 177.42 64.7878 178.27 62.7489C180.38 57.6883 183.901 53.1913 188.387 50.7876C192.689 48.4829 198.314 47.8558 205.456 51.2387C212.772 54.7044 221.706 62.4167 231.917 76.9717C242.099 91.4844 253.371 112.542 265.466 142.299C281.358 181.395 281.711 205.928 274.837 220.177C268.175 233.984 253.968 239.457 236.644 238.516C219.317 237.575 199.845 230.166 184.73 219.433C169.437 208.574 159.681 195.129 159.681 182.583C159.681 161.834 160.796 144.925 161.781 132.065C161.93 130.123 162.076 128.265 162.216 126.494C162.536 122.431 162.819 118.834 163.009 115.769C163.276 111.436 163.384 107.787 163.063 105.161C162.794 102.968 160.799 101.409 158.606 101.677C156.413 101.946 154.853 103.941 155.122 106.134C155.342 107.93 155.295 110.884 155.024 115.276C154.839 118.271 154.564 121.759 154.247 125.782C154.106 127.567 153.957 129.456 153.804 131.455C152.813 144.405 151.681 161.542 151.681 182.583C151.681 199.074 164.112 214.604 180.098 225.956C196.263 237.434 217.164 245.47 236.21 246.504C255.259 247.539 273.424 241.516 282.042 223.653C290.447 206.231 288.987 178.919 272.878 139.287C260.645 109.191 249.108 87.5455 238.466 72.3772C227.855 57.2513 217.951 48.3053 208.881 44.0089C199.636 39.6297 191.327 40.1367 184.609 43.736Z" fill="#2C4973"/>
<path fill-rule="evenodd" clip-rule="evenodd" d="M132.485 0.0898155C134.673 -0.212262 136.692 1.3169 136.994 3.50528C139.044 18.3525 139.525 40.2977 133.944 57.5075C131.145 66.1378 126.682 74.0086 119.688 79.0105C112.548 84.1165 103.337 85.8316 91.9951 83.1693C89.8444 82.6645 88.5101 80.5118 89.0149 78.3612C89.5197 76.2105 91.6724 74.8762 93.8231 75.381C103.36 77.6195 110.107 76.0267 115.034 72.5033C120.106 68.8757 123.819 62.7954 126.334 55.0396C131.381 39.4771 131.045 18.9102 129.069 4.5992C128.767 2.41081 130.296 0.391893 132.485 0.0898155Z" fill="#2C4973"/>
<path fill-rule="evenodd" clip-rule="evenodd" d="M154.606 0.0380577C152.418 -0.26402 150.399 1.26514 150.097 3.45353C148.047 18.3007 147.566 40.2459 153.147 57.4557C155.946 66.0861 160.409 73.9568 167.403 78.9587C174.543 84.0648 183.754 85.7798 195.096 83.1176C197.246 82.6128 198.581 80.4601 198.076 78.3094C197.571 76.1587 195.418 74.8244 193.268 75.3293C183.731 77.5677 176.984 75.975 172.057 72.4515C166.984 68.824 163.272 62.7436 160.757 54.9878C155.71 39.4254 156.046 18.8585 158.022 4.54745C158.324 2.35906 156.794 0.340135 154.606 0.0380577Z" fill="#2C4973"/>
<path fill-rule="evenodd" clip-rule="evenodd" d="M142.954 70.8232C145.157 70.6488 147.083 72.2926 147.258 74.4949C147.448 76.8908 146.554 79.15 145.48 80.9933C144.37 82.8992 142.812 84.7962 141.045 86.6047C137.505 90.23 132.729 93.9042 127.764 97.0568C122.797 100.211 117.456 102.96 112.718 104.646C110.356 105.487 108.015 106.109 105.87 106.343C103.821 106.566 101.421 106.494 99.3529 105.378C97.4089 104.329 96.6834 101.902 97.7327 99.958C98.7819 98.0139 101.208 97.2885 103.153 98.3377C103.151 98.3367 103.152 98.3371 103.156 98.3386C103.209 98.3568 103.711 98.5305 105.005 98.3897C106.315 98.2471 108.015 97.8281 110.036 97.1089C114.065 95.6752 118.863 93.2323 123.476 90.3033C128.091 87.3729 132.335 84.0732 135.322 81.015C136.82 79.4817 137.902 78.1095 138.568 76.9665C139.27 75.7609 139.288 75.1914 139.283 75.1266C139.108 72.9244 140.752 70.9977 142.954 70.8232Z" fill="#2C4973"/>
<path fill-rule="evenodd" clip-rule="evenodd" d="M144.136 70.7715C141.934 70.597 140.007 72.2409 139.833 74.4431C139.643 76.839 140.537 79.0982 141.61 80.9415C142.721 82.8474 144.279 84.7444 146.045 86.5529C149.586 90.1782 154.362 93.8525 159.327 97.0051C164.294 100.159 169.635 102.908 174.373 104.594C176.735 105.435 179.076 106.058 181.22 106.291C183.27 106.514 185.669 106.442 187.738 105.326C189.682 104.277 190.407 101.85 189.358 99.9062C188.309 97.9622 185.882 97.2367 183.938 98.286C183.94 98.2849 183.939 98.2853 183.935 98.2869C183.882 98.305 183.38 98.4788 182.086 98.338C180.775 98.1953 179.076 97.7763 177.055 97.0572C173.026 95.6235 168.228 93.1805 163.615 90.2516C159 87.3212 154.756 84.0215 151.769 80.9632C150.271 79.43 149.189 78.0577 148.523 76.9148C147.821 75.7091 147.803 75.1397 147.808 75.0749C147.982 72.8726 146.339 70.9459 144.136 70.7715Z" fill="#2C4973"/>
</svg>
