<svg width="19" height="21" viewBox="0 0 19 21" fill="none" xmlns="http://www.w3.org/2000/svg">
<path fill-rule="evenodd" clip-rule="evenodd" d="M12.0063 16.9022L15.2158 20.283C15.4216 20.4999 15.666 20.6719 15.9349 20.7892C16.2039 20.9066 16.4921 20.967 16.7832 20.967C16.7832 20.967 16.7832 20.967 16.7832 20.967C17.0743 20.967 17.3626 20.9066 17.6315 20.7893C17.9005 20.6719 18.1448 20.5 18.3507 20.2831C18.3661 20.2669 18.3813 20.2505 18.3962 20.2338C18.3969 20.2331 18.3975 20.2323 18.3981 20.2316C18.5817 20.026 18.7285 19.7868 18.8312 19.5257C18.9426 19.2424 19 18.9388 19 18.6321C19 18.3255 18.9427 18.0219 18.8313 17.7386C18.7286 17.4775 18.5818 17.2383 18.3983 17.0327C18.3979 17.0323 18.3976 17.0319 18.3972 17.0315C18.382 17.0145 18.3665 16.9977 18.3508 16.9811L15.1412 13.6004L12.6725 12.526C12.7987 12.337 12.9159 12.1424 13.0239 11.9428C13.2342 11.5544 13.4095 11.1474 13.5483 10.7274C13.8025 9.95805 13.9342 9.14475 13.9333 8.32057C13.9333 4.27429 10.8081 0.982422 6.96665 0.982422C3.12522 0.982422 0 4.27429 0 8.32057C0 12.3669 3.12522 15.6587 6.96665 15.6587C7.73662 15.6596 8.4965 15.5254 9.21643 15.2661C9.61593 15.1222 10.0031 14.9398 10.3729 14.7205C10.5843 14.5952 10.79 14.4579 10.9891 14.3088L12.0063 16.9022ZM16.1115 19.3396C16.1274 19.3563 16.1437 19.3723 16.1605 19.3876C16.1605 19.3876 16.1605 19.3876 16.1605 19.3876C16.2508 19.47 16.3544 19.5332 16.4657 19.5747C16.5667 19.6125 16.674 19.6323 16.7833 19.6323C16.7833 19.6323 16.7833 19.6323 16.7833 19.6323C16.8925 19.6323 16.9998 19.6125 17.1009 19.5748C17.2121 19.5333 17.3157 19.4701 17.406 19.3877C17.4229 19.3723 17.4392 19.3563 17.4551 19.3396C17.5331 19.2573 17.5961 19.1621 17.6423 19.0588C17.7014 18.9266 17.7329 18.781 17.7329 18.6321C17.7329 18.4831 17.7014 18.3376 17.6423 18.2054C17.6102 18.1334 17.5698 18.0653 17.5219 18.0028C17.5214 18.0022 17.521 18.0016 17.5205 18.001C17.5001 17.9745 17.4783 17.9489 17.4551 17.9245L17.408 17.8748L14.4241 14.7319L12.1348 13.7357L13.0806 16.147L16.1115 19.3396ZM9.88493 13.4764C9.99329 13.4081 10.0993 13.3361 10.2029 13.2606C10.7442 12.8659 11.2178 12.3752 11.6013 11.812C11.686 11.6876 11.7663 11.5597 11.8419 11.4285C11.8751 11.3709 11.9075 11.3127 11.9389 11.2539C12.402 10.3863 12.6664 9.38601 12.6666 8.3219C12.6666 8.32146 12.6666 8.32102 12.6666 8.32057C12.6666 5.01007 10.1096 2.31663 6.96665 2.31663C3.82374 2.31663 1.26666 5.01007 1.26666 8.32057C1.26666 11.6311 3.82374 14.3245 6.96665 14.3245C6.96719 14.3245 6.96772 14.3245 6.96825 14.3245C8.027 14.3242 9.01923 14.0182 9.86955 13.486C9.87468 13.4828 9.87981 13.4796 9.88493 13.4764Z" fill="white"/>
</svg>
