<svg width="29" height="29" viewBox="0 0 29 29" fill="none" xmlns="http://www.w3.org/2000/svg">
<path d="M28.0091 23.2094L23.1103 18.3947L19.3422 16.8646C20.5969 15.111 21.269 13.019 21.2666 10.8753C21.2666 5.11265 16.4966 0.424438 10.6333 0.424438C4.77007 0.424438 0 5.11265 0 10.8753C0 16.6379 4.77007 21.3261 10.6333 21.3261C12.8335 21.3286 14.9796 20.6565 16.7728 19.4036L18.3255 23.097L23.2241 27.912C23.5383 28.2208 23.9113 28.4657 24.3217 28.6329C24.7322 28.8 25.1722 28.886 25.6165 28.886C26.0608 28.886 26.5008 28.8 26.9113 28.6329C27.3218 28.4658 27.6948 28.2209 28.009 27.9121C28.3231 27.6034 28.5724 27.2368 28.7424 26.8333C28.9125 26.4299 29 25.9975 29 25.5608C29 25.1241 28.9125 24.6917 28.7425 24.2882C28.5725 23.8848 28.3233 23.5182 28.0091 23.2094ZM1.93333 10.8753C1.93333 6.16052 5.83624 2.32459 10.6333 2.32459C15.4304 2.32459 19.3333 6.16052 19.3333 10.8753C19.3333 15.59 15.4304 19.426 10.6333 19.426C5.83624 19.426 1.93333 15.59 1.93333 10.8753ZM26.6419 26.5684C26.3698 26.8353 26.001 26.9851 25.6166 26.9851C25.2322 26.9851 24.8634 26.8353 24.5913 26.5684L19.9651 22.0216L18.5215 18.5873L22.0158 20.0062L26.6421 24.553C26.9136 24.8205 27.066 25.1829 27.066 25.5607C27.066 25.9385 26.9135 26.3009 26.6419 26.5684Z" fill="#404040"/>
</svg>
